<?xml version="1.0" encoding="UTF-8"?>
<!DOCTYPE svg PUBLIC "-//W3C//DTD SVG 1.1//EN" "http://www.w3.org/Graphics/SVG/1.1/DTD/svg11.dtd">
<svg xmlns="http://www.w3.org/2000/svg" version="1.1" width="640px" height="640px" style="shape-rendering:geometricPrecision; text-rendering:geometricPrecision; image-rendering:optimizeQuality; fill-rule:evenodd; clip-rule:evenodd" xmlns:xlink="http://www.w3.org/1999/xlink">
<g><path style="opacity:0.836" fill="#000000" d="M 639.5,480.5 C 639.5,482.5 639.5,484.5 639.5,486.5C 633.453,488.69 627.453,491.19 621.5,494C 575.508,533.651 522.175,557.651 461.5,566C 410.097,572.311 358.763,571.644 307.5,564C 212.634,549.96 118.967,530.294 26.5,505C 20.2638,503.255 14.2638,500.922 8.5,498C 4.59151,495.594 1.59151,492.428 -0.5,488.5C -0.5,484.5 -0.5,480.5 -0.5,476.5C 2.18058,471.352 6.51391,468.852 12.5,469C 104.6,460.418 196.767,458.585 289,463.5C 291.622,446.573 285.455,433.74 270.5,425C 264.059,421.78 257.392,419.113 250.5,417C 220.495,410.332 190.495,403.666 160.5,397C 166.423,393.851 172.756,392.851 179.5,394C 184.892,394.681 190.225,395.681 195.5,397C 225.5,404.416 255.167,412.916 284.5,422.5C 281.458,319.145 277.958,215.812 274,112.5C 270.292,161.416 261.625,209.416 248,256.5C 237.969,288.232 222.969,317.232 203,343.5C 188.403,360.767 173.07,377.434 157,393.5C 157.209,385.075 160.209,377.742 166,371.5C 183.154,357.018 198.154,340.685 211,322.5C 229.699,290.745 242.699,256.745 250,220.5C 260.582,170.258 268.416,119.591 273.5,68.5C 277.899,75.4045 283.232,81.5712 289.5,87C 340.244,120.4 384.744,160.9 423,208.5C 476.241,275.849 506.574,352.516 514,438.5C 514.5,453.163 514.667,467.83 514.5,482.5C 554.939,485.774 595.272,484.774 635.5,479.5C 636.925,479.623 638.258,479.957 639.5,480.5 Z M 282.5,93.5 C 305.642,106.24 327.642,120.74 348.5,137C 353.634,141.133 358.468,145.633 363,150.5C 384.872,178.712 407.872,206.045 432,232.5C 472.619,287.456 496.953,349.122 505,417.5C 507.041,433.616 508.541,449.783 509.5,466C 509.936,472.621 507.936,478.287 503.5,483C 481.827,483.274 460.16,483.774 438.5,484.5C 429.764,484.251 421.097,483.418 412.5,482C 401.699,477.203 391.366,471.536 381.5,465C 354.705,449.936 326.705,437.602 297.5,428C 295.376,426.878 293.543,425.378 292,423.5C 290.105,418.689 288.938,413.689 288.5,408.5C 289.65,380.19 289.817,351.857 289,323.5C 286.667,279.833 284.333,236.167 282,192.5C 281.286,159.493 281.452,126.493 282.5,93.5 Z M 292.5,433.5 C 329.507,445.337 364.507,461.504 397.5,482C 368.183,480.585 338.85,478.918 309.5,477C 303.113,477.413 299.447,474.58 298.5,468.5C 316.16,467.184 333.827,467.184 351.5,468.5C 354.167,468.333 356.833,468.167 359.5,468C 362.167,466.667 362.167,465.333 359.5,464C 357.212,463.178 354.878,462.511 352.5,462C 334.81,461.436 317.144,461.436 299.5,462C 296.866,459.463 295.366,456.297 295,452.5C 293.513,446.246 292.68,439.912 292.5,433.5 Z M 139.5,467.5 C 187.834,467.333 236.168,467.5 284.5,468C 290.849,468.68 294.016,472.18 294,478.5C 295.952,480.894 298.452,482.394 301.5,483C 336.872,484.965 372.205,487.298 407.5,490C 413.736,492.117 419.736,494.784 425.5,498C 449.639,512.819 474.139,526.985 499,540.5C 503.892,539.277 507.225,536.277 509,531.5C 511.385,517.856 513.552,504.189 515.5,490.5C 547.522,490.095 579.522,490.595 611.5,492C 579.983,519.931 543.649,539.265 502.5,550C 452.174,562.355 401.174,566.355 349.5,562C 325.357,560.149 301.357,557.149 277.5,553C 214.213,541.743 151.213,529.076 88.5,515C 67.2815,510.112 46.2815,504.446 25.5,498C 16.7957,494.954 9.46242,489.954 3.5,483C 21.0575,475.695 39.3908,471.362 58.5,470C 85.6524,468.973 112.652,468.14 139.5,467.5 Z M 426.5,491.5 C 452.997,490.336 479.664,490.17 506.5,491C 507.684,504.708 506.184,518.208 502,531.5C 500.542,533.524 498.709,533.691 496.5,532C 472.649,519.246 449.315,505.746 426.5,491.5 Z"/></g>
</svg>
